<svg width="43.681152" height="44.000000" viewBox="0 0 43.6812 44" fill="none" xmlns="http://www.w3.org/2000/svg" xmlns:xlink="http://www.w3.org/1999/xlink">
	<path id="Vector" d="M29.4351 40.4823C31.8428 39.4771 34.0295 38.002 35.8696 36.142C37.7148 34.287 39.1782 32.0826 40.1755 29.6556C41.1729 27.2286 41.6843 24.627 41.6812 22C41.6843 19.373 41.1726 16.7714 40.1753 14.3445C39.178 11.9175 37.7148 9.71313 35.8696 7.85803C34.0295 5.99805 31.8428 4.52307 29.4351 3.5177C27.0276 2.51233 24.4465 1.99658 21.8406 2C19.2346 1.9967 16.6536 2.51245 14.2461 3.51782C11.8384 4.52307 9.65161 5.99805 7.81128 7.85803C5.96631 9.71313 4.50293 11.9175 3.50562 14.3445C2.5083 16.7714 1.99658 19.373 2 22C1.99658 24.627 2.5083 27.2286 3.50562 29.6556C4.50293 32.0826 5.96606 34.287 7.81128 36.142C9.65161 38.002 11.8384 39.4769 14.2461 40.4823C16.6536 41.4875 19.2346 42.0034 21.8406 42C24.4465 42.0034 27.0276 41.4877 29.4351 40.4823Z" stroke="#4B4B4B" stroke-opacity="1.000000" stroke-width="4.000000" stroke-linejoin="round"/>
	<path id="Vector" d="M21.8394 35C22.4973 35 23.1279 34.7366 23.593 34.2678C24.0581 33.799 24.3196 33.1631 24.3196 32.5C24.3196 31.8369 24.0581 31.201 23.593 30.7322C23.1279 30.2634 22.4973 30 21.8394 30C21.1816 30 20.5508 30.2634 20.0857 30.7322C19.6206 31.201 19.3594 31.8369 19.3594 32.5C19.3594 33.1631 19.6206 33.799 20.0857 34.2678C20.5508 34.7366 21.1816 35 21.8394 35Z" fill="#4B4B4B" fill-opacity="1.000000" fill-rule="evenodd"/>
	<path id="Vector" d="M21.8398 10L21.8398 26" stroke="#4B4B4B" stroke-opacity="1.000000" stroke-width="4.000000" stroke-linejoin="round" stroke-linecap="round"/>
</svg>
